<svg xmlns="http://www.w3.org/2000/svg" width="20" height="18.462" viewBox="0 0 20 18.462"><defs><style>.a{fill:#fff;}</style></defs><path class="a" d="M67.808,66.692H48.192A.193.193,0,0,1,48,66.5v-.962A1.537,1.537,0,0,1,49.538,64H66.462A1.537,1.537,0,0,1,68,65.538V66.5A.193.193,0,0,1,67.808,66.692Zm-.962,1.25H49.154a.386.386,0,0,0-.385.385v12.6a1.543,1.543,0,0,0,1.538,1.538H65.692a1.543,1.543,0,0,0,1.538-1.538v-12.6A.386.386,0,0,0,66.846,67.942ZM60.4,74.769H55.615a.69.69,0,0,1-.687-.591.673.673,0,0,1,.668-.755h4.788a.69.69,0,0,1,.688.591.675.675,0,0,1-.668.755Z" transform="translate(-48 -64)"/></svg>