<svg xmlns="http://www.w3.org/2000/svg" width="17.145" height="20" viewBox="0 0 17.145 20"><defs><style>.a{fill:#999;}</style></defs><g transform="translate(14 -114)"><path class="a" d="M131.1,43.977a5.876,5.876,0,0,0,5.806-6.041A5.966,5.966,0,0,0,131.2,32a5.876,5.876,0,0,0-5.806,6.041A5.966,5.966,0,0,0,131.1,43.977Zm-.163-9.355a3.374,3.374,0,1,1-3.02,3.144A3.309,3.309,0,0,1,130.941,34.622Z" transform="translate(-136.582 82.005)"/><path class="a" d="M72.586,262.221a6.545,6.545,0,0,1-4.844-2.154.182.182,0,0,0-.295.032l-3.384,6.082a.377.377,0,0,0,.321.564h3.576a.367.367,0,0,1,.317.183l1.741,2.975a.365.365,0,0,0,.652-.037l1.92-4.336,1.4-3.158a.186.186,0,0,0-.2-.261A6.928,6.928,0,0,1,72.586,262.221Zm4.844-2.159a6.631,6.631,0,0,1-2.344,1.655.171.171,0,0,0-.1.1l-2,4.478a.19.19,0,0,0,0,.156l1.513,3.415a.365.365,0,0,0,.652.037l1.741-2.975a.367.367,0,0,1,.317-.183h3.576a.379.379,0,0,0,.321-.564l-3.384-6.087a.192.192,0,0,0-.3-.027Z" transform="translate(-78.015 -136.086)"/></g></svg>