<svg xmlns="http://www.w3.org/2000/svg" xmlns:xlink="http://www.w3.org/1999/xlink" width="19.5" height="25.472" viewBox="0 0 19.5 25.472"><defs><style>.a{fill:none;}.b{fill:#4d4d4d;}.c{fill:#fff;}.d{clip-path:url(#a);}</style><clipPath id="a"><path class="a" d="M3.954,25.472c-1.595,0-1.993-1.838-2.01-1.916L1.112,5.039H0V2.919H4.83v-.4A2.515,2.515,0,0,1,7.336,0h4.829a2.515,2.515,0,0,1,2.506,2.519v.4H19.5v2.12H18.35s0,.006,0,.012,0,.059,0,.108c-.092,3.282-.419,14.3-.779,18.3,0,.02-.377,2.008-2.023,2.008Zm.088-2.582a1.029,1.029,0,0,0,.143.46H15.314a1.012,1.012,0,0,0,.144-.46c.073-.686.7-16.836.738-17.851H3.226C3.524,11.919,3.986,22.35,4.042,22.89ZM12.511,2.927V2.34a.669.669,0,0,0-.727-.585H7.713a.668.668,0,0,0-.725.585v.587ZM7.678,22.135H5.765l-.005-.144L5.252,6.35H7.166l.005.143.508,15.64h0Zm6.055,0H11.82L12.335,6.35h1.913l-.513,15.782h0Zm-3.028,0H8.793V6.35h1.913V22.133h0Z"/></clipPath></defs><path class="b" d="M15.545,25.472H3.954c-1.595,0-1.994-1.838-2.01-1.916L1.112,5.039H0V2.919H4.83v-.4A2.515,2.515,0,0,1,7.336,0h4.829a2.515,2.515,0,0,1,2.506,2.519v.4H19.5v2.12H18.35c0,.007,0,.055,0,.121-.092,3.282-.419,14.3-.779,18.3C17.566,23.484,17.191,25.472,15.545,25.472ZM3.226,5.039c.3,6.879.761,17.31.816,17.851a1.025,1.025,0,0,0,.143.46H15.314a1.013,1.013,0,0,0,.144-.46c.073-.686.7-16.836.738-17.851ZM7.713,1.755a.667.667,0,0,0-.725.585v.587h5.523V2.34a.669.669,0,0,0-.727-.585Zm-.034,20.38H5.765l-.005-.144L5.252,6.35H7.166l.005.143.508,15.64Zm3.027,0H8.793V6.349h1.913V22.133Zm3.028,0H11.82L12.335,6.35h1.913l-.513,15.782Z"/><path class="c" d="M15.545,25.472H3.954c-1.595,0-1.994-1.838-2.01-1.916L1.112,5.039H0V2.919H4.83v-.4A2.515,2.515,0,0,1,7.336,0h4.829a2.515,2.515,0,0,1,2.506,2.519v.4H19.5v2.12H18.35c0,.007,0,.055,0,.121-.092,3.282-.419,14.3-.779,18.3C17.566,23.484,17.191,25.472,15.545,25.472ZM3.226,5.039c.3,6.879.761,17.31.816,17.851a1.025,1.025,0,0,0,.143.46H15.314a1.013,1.013,0,0,0,.144-.46c.073-.686.7-16.836.738-17.851ZM7.713,1.755a.667.667,0,0,0-.725.585v.587h5.523V2.34a.669.669,0,0,0-.727-.585Zm-.034,20.38H5.765l-.005-.144L5.252,6.35H7.166l.005.143.508,15.64Zm3.027,0H8.793V6.349h1.913V22.133Zm3.028,0H11.82L12.335,6.35h1.913l-.513,15.782Z"/></svg>