<svg xmlns="http://www.w3.org/2000/svg" width="20" height="19.004" viewBox="0 0 20 19.004"><defs><style>.a{fill:#999;}</style></defs><path class="a" d="M7.25-19A3.214,3.214,0,0,1,9.5-17.66l.5.68.5-.67a2.993,2.993,0,0,1,3.836-1.035A2.993,2.993,0,0,1,15.82-15H18a1.993,1.993,0,0,1,1.416.584A1.993,1.993,0,0,1,20-13V-2a1.993,1.993,0,0,1-.584,1.416A1.992,1.992,0,0,1,18,0H2A1.993,1.993,0,0,1,.584-.584,1.993,1.993,0,0,1,0-2L.01-13a1.985,1.985,0,0,1,.578-1.415A1.986,1.986,0,0,1,2-15H4.18a2.994,2.994,0,0,1,1.476-3.7C6.512-19.031,5.991-18.884,7.25-19ZM10-13.654l-1,1.36L6.62-9.054,5-10.224l2.08-2.83H2v11l16.092.088S18-13.067,18-13.054H12.92L15-10.224l-1.62,1.17L11-12.294ZM7-17a1,1,0,0,0-1,1,1,1,0,0,0,1,1,1,1,0,0,0,1-1A1,1,0,0,0,7-17Zm6,0a1,1,0,0,0-1,1,1,1,0,0,0,1,1,1,1,0,0,0,1-1A1,1,0,0,0,13-17Z" transform="translate(0 19.004)"/></svg>