<svg xmlns="http://www.w3.org/2000/svg" width="15.849" height="24" viewBox="0 0 15.849 24"><g transform="translate(-0.1 1)"><path d="M14.264,24H1.585A1.587,1.587,0,0,1,0,22.415V9.732A1.587,1.587,0,0,1,1.585,8.147H4.972V9.506H2.188a.831.831,0,0,0-.83.83V21.812a.831.831,0,0,0,.83.83H13.661a.831.831,0,0,0,.83-.83V10.336a.831.831,0,0,0-.83-.83H10.868V8.147h3.4a1.587,1.587,0,0,1,1.585,1.585V22.415A1.587,1.587,0,0,1,14.264,24ZM7.909,16.753a.669.669,0,0,1-.661-.676V2.408l-2.5,2.537a.663.663,0,0,1-.931,0,.683.683,0,0,1,0-.956L7.582.166a.438.438,0,0,1,.686,0l3.765,3.825a.685.685,0,0,1,0,.955.648.648,0,0,1-.932,0L8.57,2.376v13.7A.669.669,0,0,1,7.909,16.753Z" transform="translate(0.1 -1)"/></g></svg>