<svg xmlns="http://www.w3.org/2000/svg" width="20.805" height="20.821" viewBox="0 0 20.805 20.821"><defs><style>.a{fill:#999;stroke:#999;stroke-width:0.5px;fill-rule:evenodd;}</style></defs><path class="a" d="M11.445,2.133A3.889,3.889,0,0,0,8.7,1H4.88A3.9,3.9,0,0,0,1,4.88V8.714a3.955,3.955,0,0,0,1.133,2.747l9.406,9.406a1.546,1.546,0,0,0,2.188,0l7.124-7.124a1.546,1.546,0,0,0,0-2.188Zm-8.3,8.319A2.4,2.4,0,0,1,2.412,8.7V4.88A2.474,2.474,0,0,1,4.88,2.412H8.714a2.428,2.428,0,0,1,1.754.729L20,12.656,12.656,20,3.142,10.452ZM4.12,4.1h3.1v3.1H4.1V4.1Z" transform="translate(-0.75 -0.75)"/></svg>