<svg xmlns="http://www.w3.org/2000/svg" width="25.465" height="20" viewBox="0 0 25.465 20"><defs><style>.a{fill:#fff;}</style></defs><path class="a" d="M57.453,97.861a12.076,12.076,0,0,0-3.228-9.019C51.93,86.529,49,85.336,44.94,85.12a.23.23,0,0,1-.216-.227v-4.7A.229.229,0,0,0,44.372,80L32.1,88.081a.228.228,0,0,0,0,.381l12.269,8.081a.226.226,0,0,0,.352-.193V91.712a.227.227,0,0,1,.239-.227A13.363,13.363,0,0,1,50.481,92.8a13.994,13.994,0,0,1,5.37,4.745A12.169,12.169,0,0,1,57.067,99.8a.252.252,0,0,0,.233.159h.165C57.459,99.3,57.453,98.446,57.453,97.861Z" transform="translate(-32 -79.964)"/></svg>